{
    "asset" : {
        "generator" : "Khronos glTF Blender I/O v1.8.19",
        "version" : "2.0"
    },
    "scene" : 0,
    "scenes" : [
        {
            "name" : "Scene",
            "nodes" : [
                0
            ]
        }
    ],
    "nodes" : [
        {
            "mesh" : 0,
            "name" : "Cube"
        }
    ],
    "meshes" : [
        {
            "name" : "Cube.001",
            "primitives" : [
                {
                    "attributes" : {
                        "POSITION" : 0,
                        "NORMAL" : 1,
                        "TANGENT" : 2,
                        "TEXCOORD_0" : 3
                    },
                    "indices" : 4
                }
            ]
        }
    ],
    "accessors" : [
        {
            "bufferView" : 0,
            "componentType" : 5126,
            "count" : 1649,
            "max" : [
                0.5000001192092896,
                0.5,
                0.5000001192092896
            ],
            "min" : [
                -0.49999988079071045,
                -0.5,
                -0.4999999403953552
            ],
            "type" : "VEC3"
        },
        {
            "bufferView" : 1,
            "componentType" : 5126,
            "count" : 1649,
            "type" : "VEC3"
        },
        {
            "bufferView" : 2,
            "componentType" : 5126,
            "count" : 1649,
            "type" : "VEC4"
        },
        {
            "bufferView" : 3,
            "componentType" : 5126,
            "count" : 1649,
            "type" : "VEC2"
        },
        {
            "bufferView" : 4,
            "componentType" : 5123,
            "count" : 9216,
            "type" : "SCALAR"
        }
    ],
    "bufferViews" : [
        {
            "buffer" : 0,
            "byteLength" : 19788,
            "byteOffset" : 0
        },
        {
            "buffer" : 0,
            "byteLength" : 19788,
            "byteOffset" : 19788
        },
        {
            "buffer" : 0,
            "byteLength" : 26384,
            "byteOffset" : 39576
        },
        {
            "buffer" : 0,
            "byteLength" : 13192,
            "byteOffset" : 65960
        },
        {
            "buffer" : 0,
            "byteLength" : 18432,
            "byteOffset" : 79152
        }
    ],
    "buffers" : [
        {
            "byteLength" : 97584,
            "uri" : "data:application/octet-stream;base64,"
        }
    ]
}
